<svg width="20" height="20" viewBox="0 0 20 20" fill="none" xmlns="http://www.w3.org/2000/svg">
<circle cx="10" cy="10" r="9" fill="#FCFCFC"/>
<path d="M10 0C4.47716 0 0 4.47716 0 10C0 15.5228 4.47716 20 10 20C15.5228 20 20 15.5228 20 10C19.9929 4.4801 15.5199 0.00707851 10 0ZM10.429 19.1206V17.3616C10.429 17.1247 10.2369 16.9326 10 16.9326C9.76308 16.9326 9.571 17.1247 9.571 17.3616V19.1206C4.86696 18.896 1.10403 15.133 0.879451 10.429H2.63835C2.87527 10.429 3.06735 10.2369 3.06735 10C3.06735 9.76308 2.87527 9.571 2.63835 9.571H0.879451C1.10403 4.86696 4.86696 1.10403 9.571 0.879451V2.63835C9.571 2.87527 9.76308 3.06735 10 3.06735C10.2369 3.06735 10.429 2.87527 10.429 2.63835V0.879451C15.133 1.10403 18.896 4.86696 19.1206 9.571H17.3616C17.1247 9.571 16.9326 9.76308 16.9326 10C16.9326 10.2369 17.1247 10.429 17.3616 10.429H17.3659H19.1248C18.9001 15.1346 15.1347 18.8981 10.429 19.1206Z" fill="#646464"/>
<path d="M14.526 13.9897L10.429 9.82414V5.49553C10.429 5.25861 10.237 5.06653 10 5.06653C9.76313 5.06653 9.57104 5.25861 9.57104 5.49553V10C9.57153 10.1126 9.6162 10.2204 9.69546 10.3003L13.9125 14.5903C14.0784 14.7597 14.3502 14.7626 14.5196 14.5968C14.689 14.4309 14.6919 14.1591 14.526 13.9897Z" fill="#7D7D7D"/>
</svg>
