<svg width="570" height="220" viewBox="0 0 570 220" fill="none" xmlns="http://www.w3.org/2000/svg">
<path d="M261.095 8.86011C259.861 8.95032 258.672 9.26552 257.649 9.77964C253.559 11.8361 251.917 15.6813 251.23 19.121C250.436 23.0965 251.347 26.5531 251.427 31.35C251.507 36.1468 251.073 41.5749 248.935 46.707L249.219 46.8273C246.645 48.603 243.559 50.5633 239.534 52.8C221.972 62.5576 211.138 79.4343 204.617 95.1413C198.096 110.848 195.8 125.143 195.8 132C195.8 145.091 195.551 169.275 218.857 196.462C233.469 213.509 257.554 216.62 279.383 214.852C301.212 213.085 321.026 206.57 329.863 201.884C359.238 186.307 376.767 165.917 386.143 147.503C389.735 140.448 392.114 133.7 393.542 127.574C393.548 127.554 393.554 127.534 393.559 127.514C393.581 127.443 393.601 127.371 393.62 127.299C393.62 127.299 393.907 126.161 394.17 124.394C394.307 123.65 394.5 122.865 394.608 122.143C395.72 114.692 395.44 108.567 393.448 103.881C386.166 86.7493 389.4 76.4849 389.4 66C389.4 60.0086 386.836 51.8049 384.02 43.5875C381.205 35.37 378.373 28.1799 376.252 24.6468C374.562 21.832 372.239 18.4229 368.534 16.2164C366.682 15.1131 364.228 14.318 361.608 14.8242C358.988 15.3303 356.698 17.0859 355.016 19.439C353.048 22.1942 347.587 27.7746 342.822 32.2867C338.955 35.9484 336.747 37.8822 335.577 38.921C332.113 37.7444 320.082 34.0571 304.296 36.3945C303.832 36.2189 303.355 36.0853 302.887 35.9218L303.05 35.5179C303.05 35.5179 284.667 27.955 271.648 14.0078C269.484 11.6886 267.279 10.0858 264.834 9.29839C263.611 8.90468 262.33 8.7699 261.095 8.86011ZM261.602 17.6429C261.744 17.5717 261.637 17.5083 262.135 17.6687C262.633 17.8291 263.736 18.4248 265.212 20.0062C269.962 25.0953 275.21 29.2762 280.182 32.725C276.343 32.9566 272.611 33.5501 269.148 34.5898C265.368 35.7242 262.497 37.2903 259.823 39.0843C260.15 36.2822 260.259 33.6016 260.219 31.2039C260.128 25.7949 259.837 20.9871 259.866 20.8398C260.169 19.3251 261.319 17.7853 261.602 17.6429ZM363.275 23.4695C363.257 23.473 363.405 23.4059 364.031 23.7789C365.283 24.5247 367.422 27.0361 368.706 29.1757C369.56 30.5971 372.991 38.554 375.693 46.4406C378.395 54.3271 380.6 63.1913 380.6 66C380.6 73.0813 378.253 83.9245 382.353 98.6304C378.238 96.5419 373.477 95.3747 368.251 95.6484C360.5 96.0543 351.943 99.4479 342.727 106.511C330.168 116.135 327.208 118.8 310.2 118.8C309.617 118.792 309.038 118.899 308.497 119.117C307.956 119.334 307.464 119.657 307.048 120.066C306.633 120.476 306.303 120.964 306.078 121.502C305.853 122.04 305.737 122.617 305.737 123.2C305.737 123.783 305.853 124.36 306.078 124.898C306.303 125.436 306.633 125.924 307.048 126.333C307.464 126.743 307.956 127.066 308.497 127.283C309.038 127.5 309.617 127.608 310.2 127.6C328.392 127.6 335.447 123.164 348.073 113.489C356.281 107.198 363.182 104.729 368.706 104.44C374.231 104.15 378.554 105.916 382.155 108.96C384.758 111.16 385.693 114.878 385.773 118.516C385.811 120.246 385.657 121.789 385.49 122.959C384.364 128.956 382.128 135.983 378.297 143.507C369.738 160.317 353.589 179.346 325.738 194.116C318.915 197.733 299.126 204.421 278.67 206.078C258.213 207.735 237.331 204.491 225.543 190.738C203.872 165.459 204.6 145.308 204.6 132C204.6 128.205 206.068 117.795 209.954 106.107C211.32 106.696 213.096 107.609 215.196 109.149C216.137 109.84 217.315 110.128 218.468 109.951C219.622 109.774 220.659 109.145 221.349 108.204C222.04 107.263 222.328 106.085 222.151 104.932C221.974 103.778 221.345 102.741 220.404 102.051C217.648 100.029 215.058 98.7593 213.013 97.9171C219.082 83.5387 228.908 68.7729 243.813 60.4914C252.576 55.6227 257.604 51.6615 261.37 48.7953C265.137 45.929 267.353 44.3176 271.674 43.0203C280.456 40.3842 292.554 40.7953 302.423 44.8593L303.583 45.332L304.812 45.1257C320.729 42.5113 335.251 47.8757 335.251 47.8757L337.726 48.8125L339.711 47.0679C339.711 47.0679 343.977 43.3159 348.872 38.6804C350.096 37.5209 351.314 36.2777 352.559 35.0625C352.623 46.3633 349.972 55.9796 349.972 55.9796L349.499 57.6296L350.264 59.1679C350.264 59.1679 355.058 69.1488 365.432 74.3359C365.949 74.5944 366.512 74.7486 367.088 74.7897C367.665 74.8307 368.244 74.7578 368.792 74.5751C369.34 74.3924 369.847 74.1034 370.284 73.7248C370.72 73.3461 371.078 72.8852 371.337 72.3683C371.595 71.8513 371.749 71.2885 371.79 70.712C371.831 70.1356 371.758 69.5566 371.575 69.0084C371.392 68.4601 371.103 67.9532 370.725 67.5166C370.346 67.0801 369.885 66.7224 369.368 66.464C363.047 63.3036 359.733 57.8075 358.866 56.2976C359.63 53.4759 362.784 41.0595 360.809 26.2796C361.271 25.7046 361.797 25.1021 362.184 24.5609C362.98 23.4468 363.293 23.466 363.275 23.4695ZM242 83.5999C236.5 83.5999 231 91.8499 231 91.8499C231 91.8499 231 104.225 239.25 104.225C247.5 104.225 253 90.4749 253 90.4749C253 90.4749 247.5 83.5999 242 83.5999ZM241.991 86.9515C242.647 86.9515 243.296 87.1264 243.934 87.364C240.211 88.4684 237.488 91.879 237.488 95.9578C237.488 97.775 238.038 99.4652 238.966 100.882C234.496 99.8084 234.489 92.5804 234.489 92.5804C234.489 92.5804 238.238 86.9515 241.991 86.9515ZM296.33 87.9999C284.3 87.9999 283.8 99.6788 283.8 99.6788C283.8 99.6788 289.02 111.071 298.762 109.914C308.508 108.761 314.6 98.3812 314.6 98.3812C314.6 98.3812 314.598 97.226 309.727 92.6148C304.852 87.9992 299.894 87.9999 296.33 87.9999ZM294.018 91.489C294.735 91.489 295.561 91.4929 296.45 91.6953C292.754 94.5729 291.05 97.01 290.443 103.262C288.775 101.128 287.65 99.8765 287.65 99.8765C287.65 99.8765 289.394 91.489 294.018 91.489ZM227.588 114.718C223.985 114.907 219.606 116.998 218.462 123.844C217.327 130.686 224.163 140.946 229.866 140.946C229.866 140.946 231.714 141.518 236.277 140.379C240.839 139.239 249.263 132.97 252.682 123.844C256.105 114.719 233.383 114.419 227.588 114.718ZM232.65 145.389C225.782 145.046 220.275 152.066 220.275 152.066C220.275 152.066 228.611 157.366 237.059 159.311C271.621 167.262 282.975 152.35 282.975 152.35C282.975 152.35 268.712 156.88 253.034 155.005C243.627 153.883 238.137 145.662 232.65 145.389ZM234.102 166.341C233.227 166.344 232.373 166.608 231.65 167.1C230.926 167.591 230.364 168.287 230.038 169.099C229.711 169.91 229.634 170.801 229.816 171.657C229.998 172.513 230.431 173.295 231.06 173.903C235.354 178.173 242.637 181.448 251.049 181.448C251.632 181.457 252.211 181.349 252.752 181.131C253.293 180.914 253.786 180.591 254.201 180.182C254.616 179.772 254.946 179.285 255.171 178.747C255.396 178.209 255.512 177.631 255.512 177.048C255.512 176.465 255.396 175.888 255.171 175.35C254.946 174.812 254.616 174.324 254.201 173.915C253.786 173.505 253.293 173.183 252.752 172.965C252.211 172.748 251.632 172.64 251.049 172.648C245.223 172.648 239.272 169.66 237.265 167.664C236.853 167.243 236.361 166.909 235.818 166.682C235.275 166.454 234.691 166.338 234.102 166.341V166.341Z" fill="#8798FD"/>
<path d="M149.416 215H66.4721C64.1681 215 63.0161 213.848 63.0161 211.544V196.856C63.0161 194.552 64.1681 193.4 66.4721 193.4H99.5921V150.2H3.68806C1.38406 150.2 0.232056 148.952 0.232056 146.456V134.936C0.232056 132.248 1.48006 129.176 3.97606 125.72L93.8321 14.8401C97.2881 10.4241 100.84 8.21606 104.488 8.21606H120.904C123.4 8.21606 124.648 9.36806 124.648 11.6721V130.04H147.4C149.896 130.04 151.144 131.288 151.144 133.784V146.456C151.144 148.952 149.896 150.2 147.4 150.2H124.648V193.4H149.416C151.912 193.4 153.16 194.552 153.16 196.856V211.544C153.16 213.848 151.912 215 149.416 215ZM99.5921 130.04V39.3201L26.1521 130.04H99.5921Z" fill="#8798FD"/>
<path d="M566.184 219.784H483.24C480.936 219.784 479.784 218.632 479.784 216.328V201.64C479.784 199.336 480.936 198.184 483.24 198.184H516.36V154.984H420.456C418.152 154.984 417 153.736 417 151.24V139.72C417 137.032 418.248 133.96 420.744 130.504L510.6 19.624C514.056 15.208 517.608 13 521.256 13H537.672C540.168 13 541.416 14.152 541.416 16.456V134.824H564.168C566.664 134.824 567.912 136.072 567.912 138.568V151.24C567.912 153.736 566.664 154.984 564.168 154.984H541.416V198.184H566.184C568.68 198.184 569.928 199.336 569.928 201.64V216.328C569.928 218.632 568.68 219.784 566.184 219.784ZM516.36 134.824V44.104L442.92 134.824H516.36Z" fill="#8798FD"/>
</svg>
