<svg width="256" height="291" viewBox="0 0 256 291" fill="none" xmlns="http://www.w3.org/2000/svg">
<path d="M120.863 83.8601C119.629 83.9503 118.44 84.2655 117.417 84.7796C113.327 86.8361 111.685 90.6813 110.998 94.121C110.204 98.0965 111.115 101.553 111.195 106.35C111.275 111.147 110.841 116.575 108.703 121.707L108.987 121.827C106.413 123.603 103.327 125.563 99.3017 127.8C81.7397 137.558 70.9057 154.434 64.3847 170.141C57.8637 185.848 55.5677 200.143 55.5677 207C55.5677 220.091 55.3187 244.275 78.6247 271.462C93.2367 288.509 117.322 291.62 139.151 289.852C160.98 288.085 180.794 281.57 189.631 276.884C219.006 261.307 236.535 240.917 245.911 222.503C249.503 215.448 251.882 208.7 253.31 202.574C253.316 202.554 253.322 202.534 253.327 202.514C253.349 202.443 253.369 202.371 253.388 202.299C253.388 202.299 253.675 201.161 253.938 199.394C254.075 198.65 254.268 197.865 254.376 197.143C255.488 189.692 255.208 183.567 253.216 178.881C245.934 161.749 249.168 151.485 249.168 141C249.168 135.009 246.604 126.805 243.788 118.588C240.973 110.37 238.141 103.18 236.02 99.6468C234.33 96.832 232.007 93.4229 228.302 91.2164C226.45 90.1131 223.996 89.318 221.376 89.8242C218.756 90.3303 216.466 92.0859 214.784 94.439C212.816 97.1942 207.355 102.775 202.59 107.287C198.723 110.948 196.515 112.882 195.345 113.921C191.881 112.744 179.85 109.057 164.064 111.395C163.6 111.219 163.123 111.085 162.655 110.922L162.818 110.518C162.818 110.518 144.435 102.955 131.416 89.0078C129.252 86.6886 127.047 85.0858 124.602 84.2984C123.379 83.9047 122.098 83.7699 120.863 83.8601ZM121.37 92.6429C121.512 92.5717 121.405 92.5083 121.903 92.6687C122.401 92.8291 123.504 93.4248 124.98 95.0062C129.73 100.095 134.978 104.276 139.95 107.725C136.111 107.957 132.379 108.55 128.916 109.59C125.136 110.724 122.265 112.29 119.591 114.084C119.918 111.282 120.027 108.602 119.987 106.204C119.896 100.795 119.605 95.9871 119.634 95.8398C119.937 94.3251 121.087 92.7853 121.37 92.6429ZM223.043 98.4695C223.025 98.473 223.173 98.4059 223.799 98.7789C225.051 99.5247 227.19 102.036 228.474 104.176C229.328 105.597 232.759 113.554 235.461 121.441C238.163 129.327 240.368 138.191 240.368 141C240.368 148.081 238.021 158.924 242.121 173.63C238.006 171.542 233.245 170.375 228.019 170.648C220.268 171.054 211.711 174.448 202.495 181.511C189.936 191.135 186.976 193.8 169.968 193.8C169.385 193.792 168.806 193.899 168.265 194.117C167.724 194.334 167.232 194.657 166.816 195.066C166.401 195.476 166.071 195.964 165.846 196.502C165.621 197.04 165.505 197.617 165.505 198.2C165.505 198.783 165.621 199.36 165.846 199.898C166.071 200.436 166.401 200.924 166.816 201.333C167.232 201.743 167.724 202.066 168.265 202.283C168.806 202.5 169.385 202.608 169.968 202.6C188.16 202.6 195.215 198.164 207.841 188.489C216.049 182.198 222.95 179.729 228.474 179.44C233.999 179.15 238.322 180.916 241.923 183.96C244.526 186.16 245.461 189.878 245.541 193.516C245.579 195.246 245.425 196.789 245.258 197.959C244.132 203.956 241.896 210.983 238.065 218.507C229.506 235.317 213.357 254.346 185.506 269.116C178.683 272.733 158.894 279.421 138.438 281.078C117.981 282.735 97.0987 279.491 85.3107 265.738C63.6397 240.459 64.3677 220.308 64.3677 207C64.3677 203.205 65.8357 192.795 69.7217 181.107C71.0877 181.696 72.8637 182.609 74.9637 184.149C75.9047 184.84 77.0827 185.128 78.2357 184.951C79.3897 184.774 80.4267 184.145 81.1167 183.204C81.8077 182.263 82.0957 181.085 81.9187 179.932C81.7417 178.778 81.1127 177.741 80.1717 177.051C77.4157 175.029 74.8257 173.759 72.7807 172.917C78.8497 158.539 88.6757 143.773 103.581 135.491C112.344 130.623 117.372 126.661 121.138 123.795C124.905 120.929 127.121 119.318 131.442 118.02C140.224 115.384 152.322 115.795 162.191 119.859L163.351 120.332L164.58 120.126C180.497 117.511 195.019 122.876 195.019 122.876L197.494 123.812L199.479 122.068C199.479 122.068 203.745 118.316 208.64 113.68C209.864 112.521 211.082 111.278 212.327 110.063C212.391 121.363 209.74 130.98 209.74 130.98L209.267 132.63L210.032 134.168C210.032 134.168 214.826 144.149 225.2 149.336C225.717 149.594 226.28 149.749 226.856 149.79C227.433 149.831 228.012 149.758 228.56 149.575C229.108 149.392 229.615 149.103 230.052 148.725C230.488 148.346 230.846 147.885 231.105 147.368C231.363 146.851 231.517 146.288 231.558 145.712C231.599 145.136 231.526 144.557 231.343 144.008C231.16 143.46 230.871 142.953 230.493 142.517C230.114 142.08 229.653 141.722 229.136 141.464C222.815 138.304 219.501 132.807 218.634 131.298C219.398 128.476 222.552 116.06 220.577 101.28C221.039 100.705 221.565 100.102 221.952 99.5609C222.748 98.4468 223.061 98.466 223.043 98.4695ZM101.768 158.6C96.2677 158.6 90.7677 166.85 90.7677 166.85C90.7677 166.85 90.7677 179.225 99.0177 179.225C107.268 179.225 112.768 165.475 112.768 165.475C112.768 165.475 107.268 158.6 101.768 158.6ZM101.759 161.951C102.415 161.951 103.064 162.126 103.702 162.364C99.9787 163.468 97.2557 166.879 97.2557 170.958C97.2557 172.775 97.8057 174.465 98.7337 175.882C94.2637 174.808 94.2567 167.58 94.2567 167.58C94.2567 167.58 98.0057 161.951 101.759 161.951ZM156.098 163C144.068 163 143.568 174.679 143.568 174.679C143.568 174.679 148.788 186.071 158.53 184.914C168.276 183.761 174.368 173.381 174.368 173.381C174.368 173.381 174.366 172.226 169.495 167.615C164.62 162.999 159.662 163 156.098 163ZM153.786 166.489C154.503 166.489 155.329 166.493 156.218 166.695C152.522 169.573 150.818 172.01 150.211 178.262C148.543 176.128 147.418 174.877 147.418 174.877C147.418 174.877 149.162 166.489 153.786 166.489ZM87.3557 189.718C83.7527 189.907 79.3737 191.998 78.2297 198.844C77.0947 205.686 83.9307 215.946 89.6337 215.946C89.6337 215.946 91.4817 216.518 96.0447 215.379C100.607 214.239 109.031 207.97 112.45 198.844C115.873 189.719 93.1507 189.419 87.3557 189.718ZM92.4177 220.389C85.5497 220.046 80.0427 227.066 80.0427 227.066C80.0427 227.066 88.3787 232.366 96.8267 234.311C131.389 242.262 142.743 227.35 142.743 227.35C142.743 227.35 128.48 231.88 112.802 230.005C103.395 228.883 97.9047 220.662 92.4177 220.389ZM93.8697 241.341C92.9947 241.344 92.1407 241.608 91.4177 242.1C90.6937 242.591 90.1317 243.287 89.8057 244.099C89.4787 244.91 89.4017 245.801 89.5837 246.657C89.7657 247.513 90.1987 248.295 90.8277 248.903C95.1217 253.173 102.405 256.448 110.817 256.448C111.4 256.457 111.979 256.349 112.52 256.131C113.061 255.914 113.554 255.591 113.969 255.182C114.384 254.772 114.714 254.285 114.939 253.747C115.164 253.209 115.28 252.631 115.28 252.048C115.28 251.465 115.164 250.888 114.939 250.35C114.714 249.812 114.384 249.324 113.969 248.915C113.554 248.505 113.061 248.183 112.52 247.965C111.979 247.748 111.4 247.64 110.817 247.648C104.991 247.648 99.0397 244.66 97.0327 242.664C96.6207 242.243 96.1287 241.909 95.5857 241.682C95.0427 241.454 94.4587 241.338 93.8697 241.341Z" fill="#8798FD"/>
<path d="M47.0073 82.6652C49.6313 87.2101 50.3955 91.7017 49.3 96.1401C48.2161 100.535 45.5957 103.932 41.4388 106.332C37.3096 108.716 33.0353 109.281 28.6161 108.027C24.1808 106.744 20.6591 103.845 18.0511 99.3276C15.4271 94.7827 14.7584 90.3283 16.0448 85.9645C17.3152 81.5729 19.9319 78.2331 23.8948 75.9451C27.8577 73.6571 32.0446 73.0689 36.4553 74.1805C40.85 75.2643 44.3673 78.0925 47.0073 82.6652ZM30.2299 104.102C33.5798 104.976 36.6681 104.597 39.4948 102.965C42.3215 101.333 44.18 98.856 45.0701 95.5338C45.9443 92.1839 45.3174 88.6661 43.1894 84.9803C41.0454 81.2668 38.2926 78.9948 34.931 78.1643C31.5811 77.2902 28.5344 77.6451 25.7908 79.2291C23.0472 80.8131 21.2026 83.2822 20.2571 86.6363C19.2955 89.9628 19.8867 93.4828 22.0307 97.1963C24.1587 100.882 26.8917 103.184 30.2299 104.102ZM81.4254 82.858L77.4763 85.138C76.2846 85.826 75.3528 85.588 74.6808 84.4241L68.3688 73.4914C67.4408 71.884 66.3328 70.8609 65.0449 70.4221C63.7569 69.9833 62.3647 70.1959 60.8682 71.0599C59.732 71.7159 58.963 72.4 58.5613 73.1123C58.1714 73.7809 57.904 74.3417 57.7591 74.7948C57.5983 75.2202 57.4929 75.6137 57.4429 75.9751C57.3663 76.6105 57.3532 77.2277 57.4035 77.8269L63.9795 89.2168L66.1827 87.9448C66.5429 87.7368 66.8191 87.7991 67.0111 88.1317L68.0431 89.9191C68.2351 90.2517 68.1509 90.522 67.7907 90.73L59.8509 95.314C59.4907 95.522 59.2145 95.4597 59.0225 95.1271L57.9905 93.3397C57.7985 93.0071 57.8827 92.7368 58.2429 92.5288L60.5293 91.2088L46.5133 66.9324L44.2269 68.2524C43.8667 68.4604 43.5905 68.3981 43.3985 68.0656L42.3665 66.2781C42.1745 65.9455 42.2587 65.6753 42.6189 65.4673L47.8567 62.4433C48.1892 62.2513 48.4515 62.3215 48.6435 62.6541L53.9955 71.924C54.5235 72.8386 54.9561 73.7158 55.2932 74.5558L55.3764 74.5078C55.5023 71.5899 57.0479 69.2749 60.0132 67.5629C62.2302 66.2829 64.3382 65.9342 66.3373 66.5167C68.3364 67.0992 69.9898 68.4909 71.2975 70.692L77.4895 81.4168L79.8174 80.0728C80.1776 79.8648 80.4538 79.9271 80.6458 80.2597L81.6778 82.0471C81.8698 82.3797 81.7856 82.65 81.4254 82.858ZM120.275 60.4283L116.326 62.7083C115.134 63.3963 114.202 63.1583 113.53 61.9944L107.218 51.0617C106.29 49.4543 105.182 48.4312 103.894 47.9924C102.606 47.5536 101.214 47.7662 99.7176 48.6302C97.5837 49.8622 96.4249 51.6952 96.2413 54.1291C96.1987 54.3754 96.1946 54.7842 96.2289 55.3556L102.829 66.7871L105.032 65.5151C105.392 65.3071 105.668 65.3694 105.86 65.702L106.892 67.4894C107.084 67.822 107 68.0923 106.64 68.3003L98.7003 72.8843C98.34 73.0923 98.0639 73.03 97.8719 72.6975L96.8399 70.91C96.6479 70.5774 96.732 70.3071 97.0923 70.0991L99.3786 68.7791L90.7866 53.8974L88.5003 55.2174C88.14 55.4254 87.8639 55.3631 87.6719 55.0305L86.6399 53.2431C86.4479 52.9105 86.532 52.6402 86.8923 52.4322L91.7559 49.6242C92.1162 49.4162 92.3923 49.4785 92.5843 49.8111L94.1332 52.6858L94.2579 52.6138C94.3069 49.3707 95.8418 46.8772 98.8625 45.1332C101.08 43.8532 103.188 43.5045 105.187 44.087C107.186 44.6695 108.839 46.0613 110.147 48.2623L116.339 58.9871L118.667 57.6431C119.027 57.4351 119.303 57.4974 119.495 57.83L120.527 59.6175C120.719 59.95 120.635 60.2203 120.275 60.4283ZM139.162 46.032C138.342 49.0919 136.422 51.4938 133.401 53.2378C130.38 54.9818 127.348 55.4577 124.304 54.6656C121.244 53.8457 118.794 51.8422 116.954 48.6552C115.098 45.4406 114.61 42.323 115.49 39.3025C116.369 36.282 118.292 33.9158 121.257 32.2038C124.25 30.4758 127.268 30.0079 130.312 30.8001C133.368 31.5485 135.816 33.5163 137.656 36.7032C139.48 39.8625 139.982 42.9721 139.162 46.032ZM120.446 46.6392C121.758 48.9117 123.487 50.3706 125.633 51.016C127.78 51.6613 129.809 51.432 131.721 50.328C133.661 49.208 134.888 47.5573 135.402 45.376C135.916 43.1946 135.517 40.9677 134.205 38.6952C132.893 36.4228 131.158 34.9857 129.001 34.3841C126.87 33.7665 124.863 34.0016 122.979 35.0896C121.094 36.1776 119.873 37.8065 119.315 39.9761C118.757 42.1457 119.134 44.3668 120.446 46.6392ZM146.691 36.9739L144.197 38.4139C143.864 38.6059 143.602 38.5356 143.41 38.2031L129.298 13.7604C129.106 13.4278 129.176 13.1655 129.509 12.9735L132.003 11.5335C132.335 11.3415 132.598 11.4118 132.79 11.7444L146.902 36.1871C147.094 36.5196 147.023 36.7819 146.691 36.9739ZM149.591 41.2298C150.247 41.4055 150.751 41.7982 151.103 42.4079C151.455 43.0176 151.543 43.6502 151.367 44.3059C151.208 44.9893 150.809 45.515 150.172 45.883C149.562 46.235 148.908 46.3173 148.208 46.1299C147.552 45.9542 147.049 45.5616 146.697 44.9519C146.345 44.3422 146.256 43.7095 146.432 43.0538C146.62 42.3544 147.018 41.8287 147.628 41.4767C148.265 41.1087 148.92 41.0264 149.591 41.2298Z" fill="#8798FD"/>
</svg>
