<svg width="570" height="306" viewBox="0 0 570 306" fill="none" xmlns="http://www.w3.org/2000/svg">
<path d="M260.863 83.8601C259.629 83.9503 258.44 84.2655 257.417 84.7796C253.327 86.8361 251.685 90.6813 250.998 94.121C250.204 98.0965 251.115 101.553 251.195 106.35C251.275 111.147 250.841 116.575 248.703 121.707L248.987 121.827C246.413 123.603 243.327 125.563 239.302 127.8C221.74 137.558 210.906 154.434 204.385 170.141C197.864 185.848 195.568 200.143 195.568 207C195.568 220.091 195.319 244.275 218.625 271.462C233.237 288.509 257.322 291.62 279.151 289.852C300.98 288.085 320.794 281.57 329.631 276.884C359.006 261.307 376.535 240.917 385.911 222.503C389.503 215.448 391.882 208.7 393.31 202.574C393.316 202.554 393.322 202.534 393.327 202.514C393.349 202.443 393.369 202.371 393.388 202.299C393.388 202.299 393.675 201.161 393.938 199.394C394.075 198.65 394.268 197.865 394.376 197.143C395.488 189.692 395.208 183.567 393.216 178.881C385.934 161.749 389.168 151.485 389.168 141C389.168 135.009 386.604 126.805 383.788 118.588C380.973 110.37 378.141 103.18 376.02 99.6468C374.33 96.832 372.007 93.4229 368.302 91.2164C366.45 90.1131 363.996 89.318 361.376 89.8242C358.756 90.3303 356.466 92.0859 354.784 94.439C352.816 97.1942 347.355 102.775 342.59 107.287C338.723 110.948 336.515 112.882 335.345 113.921C331.881 112.744 319.85 109.057 304.064 111.395C303.6 111.219 303.123 111.085 302.655 110.922L302.818 110.518C302.818 110.518 284.435 102.955 271.416 89.0078C269.252 86.6886 267.047 85.0858 264.602 84.2984C263.379 83.9047 262.098 83.7699 260.863 83.8601ZM261.37 92.6429C261.512 92.5717 261.405 92.5083 261.903 92.6687C262.401 92.8291 263.504 93.4248 264.98 95.0062C269.73 100.095 274.978 104.276 279.95 107.725C276.111 107.957 272.379 108.55 268.916 109.59C265.136 110.724 262.265 112.29 259.591 114.084C259.918 111.282 260.027 108.602 259.987 106.204C259.896 100.795 259.605 95.9871 259.634 95.8398C259.937 94.3251 261.087 92.7853 261.37 92.6429ZM363.043 98.4695C363.025 98.473 363.173 98.4059 363.799 98.7789C365.051 99.5247 367.19 102.036 368.474 104.176C369.328 105.597 372.759 113.554 375.461 121.441C378.163 129.327 380.368 138.191 380.368 141C380.368 148.081 378.021 158.925 382.121 173.63C378.006 171.542 373.245 170.375 368.019 170.648C360.268 171.054 351.711 174.448 342.495 181.511C329.936 191.135 326.976 193.8 309.968 193.8C309.385 193.792 308.806 193.899 308.265 194.117C307.724 194.334 307.232 194.657 306.816 195.066C306.401 195.476 306.071 195.964 305.846 196.502C305.621 197.04 305.505 197.617 305.505 198.2C305.505 198.783 305.621 199.36 305.846 199.898C306.071 200.436 306.401 200.924 306.816 201.333C307.232 201.743 307.724 202.066 308.265 202.283C308.806 202.5 309.385 202.608 309.968 202.6C328.16 202.6 335.215 198.164 347.841 188.489C356.049 182.198 362.95 179.729 368.474 179.44C373.999 179.15 378.322 180.916 381.923 183.96C384.526 186.16 385.461 189.878 385.541 193.516C385.579 195.246 385.425 196.789 385.258 197.959C384.132 203.956 381.896 210.983 378.065 218.507C369.506 235.317 353.357 254.346 325.506 269.116C318.683 272.733 298.894 279.421 278.438 281.078C257.981 282.735 237.099 279.491 225.311 265.738C203.64 240.459 204.368 220.308 204.368 207C204.368 203.205 205.836 192.795 209.722 181.107C211.088 181.696 212.864 182.609 214.964 184.149C215.905 184.84 217.083 185.128 218.236 184.951C219.39 184.774 220.427 184.145 221.117 183.204C221.808 182.263 222.096 181.085 221.919 179.932C221.742 178.778 221.113 177.741 220.172 177.051C217.416 175.029 214.826 173.759 212.781 172.917C218.85 158.539 228.676 143.773 243.581 135.491C252.344 130.623 257.372 126.661 261.138 123.795C264.905 120.929 267.121 119.318 271.442 118.02C280.224 115.384 292.322 115.795 302.191 119.859L303.351 120.332L304.58 120.126C320.497 117.511 335.019 122.876 335.019 122.876L337.494 123.812L339.479 122.068C339.479 122.068 343.745 118.316 348.64 113.68C349.864 112.521 351.082 111.278 352.327 110.063C352.391 121.363 349.74 130.98 349.74 130.98L349.267 132.63L350.032 134.168C350.032 134.168 354.826 144.149 365.2 149.336C365.717 149.594 366.28 149.749 366.856 149.79C367.433 149.831 368.012 149.758 368.56 149.575C369.108 149.392 369.615 149.103 370.052 148.725C370.488 148.346 370.846 147.885 371.105 147.368C371.363 146.851 371.517 146.288 371.558 145.712C371.599 145.136 371.526 144.557 371.343 144.008C371.16 143.46 370.871 142.953 370.493 142.517C370.114 142.08 369.653 141.722 369.136 141.464C362.815 138.304 359.501 132.807 358.634 131.298C359.398 128.476 362.552 116.06 360.577 101.28C361.039 100.705 361.565 100.102 361.952 99.5609C362.748 98.4468 363.061 98.466 363.043 98.4695ZM241.768 158.6C236.268 158.6 230.768 166.85 230.768 166.85C230.768 166.85 230.768 179.225 239.018 179.225C247.268 179.225 252.768 165.475 252.768 165.475C252.768 165.475 247.268 158.6 241.768 158.6ZM241.759 161.951C242.415 161.951 243.064 162.126 243.702 162.364C239.979 163.468 237.256 166.879 237.256 170.958C237.256 172.775 237.806 174.465 238.734 175.882C234.264 174.808 234.257 167.58 234.257 167.58C234.257 167.58 238.006 161.951 241.759 161.951ZM296.098 163C284.068 163 283.568 174.679 283.568 174.679C283.568 174.679 288.788 186.071 298.53 184.914C308.276 183.761 314.368 173.381 314.368 173.381C314.368 173.381 314.366 172.226 309.495 167.615C304.62 162.999 299.662 163 296.098 163ZM293.786 166.489C294.503 166.489 295.329 166.493 296.218 166.695C292.522 169.573 290.818 172.01 290.211 178.262C288.543 176.128 287.418 174.877 287.418 174.877C287.418 174.877 289.162 166.489 293.786 166.489ZM227.356 189.718C223.753 189.907 219.374 191.998 218.23 198.844C217.095 205.686 223.931 215.946 229.634 215.946C229.634 215.946 231.482 216.518 236.045 215.379C240.607 214.239 249.031 207.97 252.45 198.844C255.873 189.719 233.151 189.419 227.356 189.718ZM232.418 220.389C225.55 220.046 220.043 227.066 220.043 227.066C220.043 227.066 228.379 232.366 236.827 234.311C271.389 242.262 282.743 227.35 282.743 227.35C282.743 227.35 268.48 231.88 252.802 230.005C243.395 228.883 237.905 220.662 232.418 220.389ZM233.87 241.341C232.995 241.344 232.141 241.608 231.418 242.1C230.694 242.591 230.132 243.287 229.806 244.099C229.479 244.91 229.402 245.801 229.584 246.657C229.766 247.513 230.199 248.295 230.828 248.903C235.122 253.173 242.405 256.448 250.817 256.448C251.4 256.457 251.979 256.349 252.52 256.131C253.061 255.914 253.554 255.591 253.969 255.182C254.384 254.772 254.714 254.285 254.939 253.747C255.164 253.209 255.28 252.631 255.28 252.048C255.28 251.465 255.164 250.888 254.939 250.35C254.714 249.812 254.384 249.324 253.969 248.915C253.554 248.505 253.061 248.183 252.52 247.965C251.979 247.748 251.4 247.64 250.817 247.648C244.991 247.648 239.04 244.66 237.033 242.664C236.621 242.243 236.129 241.909 235.586 241.682C235.043 241.454 234.459 241.338 233.87 241.341Z" fill="#8798FD"/>
<path d="M149.184 290H66.24C63.936 290 62.784 288.848 62.784 286.544V271.856C62.784 269.552 63.936 268.4 66.24 268.4H99.36V225.2H3.456C1.152 225.2 0 223.952 0 221.456V209.936C0 207.248 1.248 204.176 3.744 200.72L93.6 89.8401C97.056 85.4241 100.608 83.2161 104.256 83.2161H120.672C123.168 83.2161 124.416 84.3681 124.416 86.6721V205.04H147.168C149.664 205.04 150.912 206.288 150.912 208.784V221.456C150.912 223.952 149.664 225.2 147.168 225.2H124.416V268.4H149.184C151.68 268.4 152.928 269.552 152.928 271.856V286.544C152.928 288.848 151.68 290 149.184 290ZM99.36 205.04V114.32L25.92 205.04H99.36Z" fill="#8798FD"/>
<path d="M565.952 294.784H483.008C480.704 294.784 479.552 293.632 479.552 291.328V276.64C479.552 274.336 480.704 273.184 483.008 273.184H516.128V229.984H420.224C417.92 229.984 416.768 228.736 416.768 226.24V214.72C416.768 212.032 418.016 208.96 420.512 205.504L510.368 94.624C513.824 90.208 517.376 88 521.024 88H537.44C539.936 88 541.184 89.152 541.184 91.456V209.824H563.936C566.432 209.824 567.68 211.072 567.68 213.568V226.24C567.68 228.736 566.432 229.984 563.936 229.984H541.184V273.184H565.952C568.448 273.184 569.696 274.336 569.696 276.64V291.328C569.696 293.632 568.448 294.784 565.952 294.784ZM516.128 209.824V119.104L442.688 209.824H516.128Z" fill="#8798FD"/>
<path d="M187.007 82.6652C189.631 87.2101 190.396 91.7017 189.3 96.1401C188.216 100.535 185.596 103.932 181.439 106.332C177.31 108.716 173.035 109.281 168.616 108.027C164.181 106.744 160.659 103.845 158.051 99.3276C155.427 94.7827 154.758 90.3283 156.045 85.9645C157.315 81.5729 159.932 78.2331 163.895 75.9451C167.858 73.6571 172.045 73.0689 176.455 74.1805C180.85 75.2643 184.367 78.0925 187.007 82.6652ZM170.23 104.102C173.58 104.976 176.668 104.597 179.495 102.965C182.322 101.333 184.18 98.856 185.07 95.5338C185.944 92.1839 185.317 88.6661 183.189 84.9803C181.045 81.2668 178.293 78.9948 174.931 78.1643C171.581 77.2902 168.534 77.6451 165.791 79.2291C163.047 80.8131 161.203 83.2822 160.257 86.6363C159.295 89.9628 159.887 93.4828 162.031 97.1963C164.159 100.882 166.892 103.184 170.23 104.102ZM221.425 82.858L217.476 85.138C216.285 85.826 215.353 85.588 214.681 84.4241L208.369 73.4914C207.441 71.884 206.333 70.8609 205.045 70.4221C203.757 69.9833 202.365 70.1959 200.868 71.0599C199.732 71.7159 198.963 72.4 198.561 73.1123C198.171 73.7809 197.904 74.3417 197.759 74.7948C197.598 75.2202 197.493 75.6137 197.443 75.9751C197.366 76.6105 197.353 77.2277 197.403 77.8269L203.979 89.2168L206.183 87.9448C206.543 87.7368 206.819 87.7991 207.011 88.1317L208.043 89.9191C208.235 90.2517 208.151 90.522 207.791 90.73L199.851 95.314C199.491 95.522 199.215 95.4597 199.023 95.1271L197.991 93.3397C197.799 93.0071 197.883 92.7368 198.243 92.5288L200.529 91.2088L186.513 66.9324L184.227 68.2524C183.867 68.4604 183.591 68.3981 183.399 68.0656L182.367 66.2781C182.175 65.9455 182.259 65.6753 182.619 65.4673L187.857 62.4433C188.189 62.2513 188.451 62.3215 188.643 62.6541L193.995 71.924C194.523 72.8386 194.956 73.7158 195.293 74.5558L195.376 74.5078C195.502 71.5899 197.048 69.2749 200.013 67.5629C202.23 66.2829 204.338 65.9342 206.337 66.5167C208.336 67.0992 209.99 68.4909 211.297 70.692L217.489 81.4168L219.817 80.0728C220.178 79.8648 220.454 79.9271 220.646 80.2597L221.678 82.0471C221.87 82.3797 221.786 82.65 221.425 82.858ZM260.275 60.4283L256.326 62.7083C255.134 63.3963 254.202 63.1583 253.53 61.9944L247.218 51.0617C246.29 49.4543 245.182 48.4312 243.894 47.9924C242.606 47.5536 241.214 47.7662 239.718 48.6302C237.584 49.8622 236.425 51.6952 236.241 54.1291C236.199 54.3754 236.195 54.7842 236.229 55.3556L242.829 66.7871L245.032 65.5151C245.392 65.3071 245.668 65.3694 245.86 65.702L246.892 67.4894C247.084 67.822 247 68.0923 246.64 68.3003L238.7 72.8843C238.34 73.0923 238.064 73.03 237.872 72.6975L236.84 70.91C236.648 70.5774 236.732 70.3071 237.092 70.0991L239.379 68.7791L230.787 53.8974L228.5 55.2174C228.14 55.4254 227.864 55.3631 227.672 55.0305L226.64 53.2431C226.448 52.9105 226.532 52.6402 226.892 52.4322L231.756 49.6242C232.116 49.4162 232.392 49.4785 232.584 49.8111L234.133 52.6858L234.258 52.6138C234.307 49.3707 235.842 46.8772 238.863 45.1332C241.08 43.8532 243.188 43.5045 245.187 44.087C247.186 44.6695 248.839 46.0613 250.147 48.2623L256.339 58.9871L258.667 57.6431C259.027 57.4351 259.303 57.4974 259.495 57.83L260.527 59.6175C260.719 59.95 260.635 60.2203 260.275 60.4283ZM279.162 46.032C278.342 49.0919 276.422 51.4938 273.401 53.2378C270.38 54.9818 267.348 55.4577 264.304 54.6656C261.244 53.8457 258.794 51.8422 256.954 48.6552C255.098 45.4406 254.61 42.323 255.49 39.3025C256.369 36.282 258.292 33.9158 261.257 32.2038C264.25 30.4758 267.268 30.0079 270.312 30.8001C273.368 31.5485 275.816 33.5163 277.656 36.7032C279.48 39.8625 279.982 42.9721 279.162 46.032ZM260.446 46.6392C261.758 48.9117 263.487 50.3706 265.633 51.016C267.78 51.6613 269.809 51.432 271.721 50.328C273.661 49.208 274.888 47.5573 275.402 45.376C275.916 43.1946 275.517 40.9677 274.205 38.6952C272.893 36.4228 271.158 34.9857 269.001 34.3841C266.87 33.7665 264.863 34.0016 262.979 35.0896C261.094 36.1776 259.873 37.8065 259.315 39.9761C258.757 42.1457 259.134 44.3668 260.446 46.6392ZM286.691 36.9739L284.197 38.4139C283.864 38.6059 283.602 38.5356 283.41 38.2031L269.298 13.7604C269.106 13.4278 269.176 13.1655 269.509 12.9735L272.003 11.5335C272.335 11.3415 272.598 11.4118 272.79 11.7444L286.902 36.1871C287.094 36.5196 287.023 36.7819 286.691 36.9739ZM289.591 41.2298C290.247 41.4055 290.751 41.7982 291.103 42.4079C291.455 43.0176 291.543 43.6502 291.367 44.3059C291.208 44.9893 290.809 45.515 290.172 45.883C289.562 46.235 288.908 46.3173 288.208 46.1299C287.552 45.9542 287.049 45.5616 286.697 44.9519C286.345 44.3422 286.256 43.7095 286.432 43.0538C286.62 42.3544 287.018 41.8287 287.628 41.4767C288.265 41.1087 288.92 41.0264 289.591 41.2298Z" fill="#8798FD"/>
</svg>
