<svg width="33" height="33" viewBox="0 0 33 33" fill="none" xmlns="http://www.w3.org/2000/svg">
<g clip-path="url(#clip0)">
<path d="M28.0139 12.027H15.0139C14.8339 12.027 14.7149 11.934 14.6579 11.877C14.5649 11.784 14.5139 11.66 14.5139 11.527C14.5139 11.347 14.6059 11.228 14.6739 11.16L18.8409 6.828C19.5969 6.073 20.0129 5.068 20.0129 4C20.0129 2.933 19.5969 1.929 18.8409 1.172C18.0859 0.416 17.0819 0 16.0129 0C14.9449 0 13.9409 0.416 13.1969 1.16L1.47892 12.492C0.534916 13.436 0.013916 14.691 0.013916 16.027C0.013916 17.363 0.534916 18.619 1.47892 19.562C1.52992 19.614 1.58492 19.658 1.64392 19.695L13.1849 30.855C13.9409 31.611 14.9449 32.027 16.0129 32.027C17.0819 32.027 18.0859 31.611 18.8409 30.855C19.5969 30.099 20.0129 29.094 20.0129 28.027C20.0129 26.959 19.5969 25.954 18.8549 25.213L14.6609 20.856C14.6059 20.799 14.5139 20.682 14.5139 20.501C14.5139 20.368 14.5649 20.244 14.6599 20.147C14.7149 20.093 14.8329 20 15.0139 20H28.0139C30.2089 20 32.0039 18.214 32.0139 16.01V15.974C31.9839 13.794 30.1969 12.027 28.0139 12.027ZM28.0139 18H15.0139C14.3439 18 13.7139 18.264 13.2429 18.736C12.7719 19.206 12.5139 19.833 12.5139 20.5C12.5139 21.168 12.7739 21.795 13.2329 22.254L17.4269 26.613C17.8049 26.991 18.0129 27.493 18.0129 28.027C18.0129 28.56 17.8049 29.062 17.4269 29.441C16.6709 30.197 15.3659 30.209 14.5869 29.429L2.88092 18.109C2.84492 18.074 2.80692 18.042 2.76592 18.013C2.27992 17.465 2.01392 16.767 2.01392 16.027C2.01392 15.226 2.32592 14.472 2.88092 13.918L14.5989 2.586C15.3549 1.83 16.6709 1.83 17.4269 2.586C17.8049 2.964 18.0129 3.466 18.0129 4C18.0129 4.534 17.8049 5.036 17.4119 5.429L13.2459 9.76C12.7729 10.233 12.5139 10.861 12.5139 11.529C12.5139 12.196 12.7729 12.823 13.2409 13.291C13.7139 13.765 14.3439 14.027 15.0139 14.027H28.0139C29.1119 14.027 30.0089 14.92 30.0139 16.008C30.0089 17.105 29.1109 18 28.0139 18Z" fill="#152A41"/>
</g>
<defs>
<clipPath id="clip0">
<rect width="32.027" height="32.027" fill="white"/>
</clipPath>
</defs>
</svg>
