<svg width="25" height="25" viewBox="0 0 25 25" fill="none" xmlns="http://www.w3.org/2000/svg">
<g clip-path="url(#clip0)">
<path d="M13.2146 10.8379C12.9401 11.1123 12.9401 11.5524 13.2146 11.8269C14.3486 12.9609 14.3486 14.8043 13.2146 15.9383L7.25973 21.8932C6.12572 23.0272 4.28231 23.0272 3.1483 21.8932L2.25249 20.9973C1.11848 19.8633 1.11848 18.0199 2.25249 16.8859L8.20733 10.9311C8.48177 10.6566 8.48177 10.2165 8.20733 9.94204C7.93289 9.6676 7.49275 9.6676 7.21831 9.94204L1.26346 15.8969C0.450497 16.7098 0 17.7921 0 18.9416C0 20.0912 0.445319 21.1734 1.26346 21.9864L2.15928 22.8822C2.99814 23.721 4.10108 24.1405 5.20402 24.1405C6.30696 24.1405 7.4099 23.721 8.24876 22.8822L14.2036 16.9273C15.8813 15.2496 15.8813 12.5156 14.2036 10.8379C13.9343 10.5634 13.489 10.5634 13.2146 10.8379Z" fill="#8798FD"/>
<path d="M23.7419 3.01366L22.8461 2.11784C21.1684 0.44013 18.4343 0.44013 16.7566 2.11784L10.8017 8.07269C9.12403 9.7504 9.12403 12.4845 10.8017 14.1622C11.0762 14.4366 11.5163 14.4366 11.7908 14.1622C12.0652 13.8877 12.0652 13.4476 11.7908 13.1731C10.6568 12.0391 10.6568 10.1957 11.7908 9.06171L17.7456 3.10687C18.8796 1.97286 20.723 1.97286 21.857 3.10687L22.7529 4.00268C23.8869 5.13669 23.8869 6.9801 22.7529 8.11411L16.798 14.069C16.5236 14.3434 16.5236 14.7835 16.798 15.058C16.9326 15.1926 17.1139 15.2651 17.2899 15.2651C17.466 15.2651 17.6472 15.1978 17.7819 15.058L23.7367 9.10314C24.5497 8.29017 25.0002 7.20794 25.0002 6.0584C25.0002 4.90885 24.5548 3.82663 23.7419 3.01366Z" fill="#8798FD"/>
</g>
<defs>
<clipPath id="clip0">
<rect width="25" height="25" fill="white"/>
</clipPath>
</defs>
</svg>
