<svg width="249" height="25" viewBox="0 0 249 25" fill="none" xmlns="http://www.w3.org/2000/svg">
<path d="M5.24 19.168C4.168 19.168 3.312 18.968 2.672 18.568C2.032 18.168 1.632 17.792 1.472 17.44H1.424C1.456 18.224 1.472 18.64 1.472 18.688C1.472 18.896 1.36 19 1.136 19H0.32C0.112 19 0.00800008 18.896 0.00800008 18.688V15.088C0.00800008 14.88 0.112 14.776 0.32 14.776H1.256C1.48 14.776 1.592 14.88 1.592 15.088V15.568C1.752 16.048 2.088 16.488 2.6 16.888C3.208 17.368 3.968 17.608 4.88 17.608C6.672 17.608 7.568 16.984 7.568 15.736C7.568 15.304 7.32 14.96 6.824 14.704C6.328 14.432 5.72 14.208 5 14.032C4.296 13.856 3.592 13.656 2.888 13.432C2.184 13.208 1.584 12.848 1.088 12.352C0.592 11.84 0.344 11.2 0.344 10.432C0.344 9.392 0.72 8.568 1.472 7.96C2.224 7.336 3.184 7.024 4.352 7.024C5.936 7.024 7.072 7.488 7.76 8.416H7.808C7.776 7.84 7.76 7.544 7.76 7.528C7.76 7.32 7.864 7.216 8.072 7.216H8.84C9.048 7.216 9.152 7.32 9.152 7.528V10.864C9.152 11.072 9.048 11.176 8.84 11.176H7.904C7.68 11.176 7.568 11.072 7.568 10.864V10.528C7.568 10.096 7.312 9.672 6.8 9.256C6.304 8.824 5.656 8.608 4.856 8.608C4.056 8.608 3.432 8.776 2.984 9.112C2.536 9.448 2.312 9.888 2.312 10.432C2.312 10.96 2.56 11.376 3.056 11.68C3.568 11.968 4.184 12.2 4.904 12.376C5.624 12.536 6.344 12.72 7.064 12.928C7.784 13.136 8.392 13.48 8.888 13.96C9.4 14.44 9.656 15.104 9.656 15.952C9.656 16.8 9.288 17.552 8.552 18.208C7.832 18.848 6.728 19.168 5.24 19.168ZM16.5736 19H11.9896C11.7816 19 11.6776 18.904 11.6776 18.712V17.68C11.6776 17.488 11.7816 17.392 11.9896 17.392H13.3096V8.8H11.9896C11.7816 8.8 11.6776 8.704 11.6776 8.512V7.48C11.6776 7.288 11.7816 7.192 11.9896 7.192H15.0136C15.2056 7.192 15.3016 7.288 15.3016 7.48V17.392H16.5736C16.7816 17.392 16.8856 17.488 16.8856 17.68V18.712C16.8856 18.904 16.7816 19 16.5736 19ZM15.2056 3.64C15.4776 3.912 15.6136 4.232 15.6136 4.6C15.6136 4.968 15.4776 5.28 15.2056 5.536C14.9496 5.792 14.6376 5.92 14.2696 5.92C13.9016 5.92 13.5816 5.792 13.3096 5.536C13.0536 5.28 12.9256 4.968 12.9256 4.6C12.9256 4.232 13.0536 3.912 13.3096 3.64C13.5816 3.368 13.9016 3.232 14.2696 3.232C14.6376 3.232 14.9496 3.368 15.2056 3.64ZM38.9169 19H36.6369C36.2689 19 35.9969 18.928 35.8209 18.784C35.6609 18.624 35.5809 18.36 35.5809 17.992V11.68C35.5809 10.752 35.3569 10.032 34.9089 9.52C34.4769 9.008 33.8289 8.752 32.9649 8.752C31.7009 8.752 30.7089 9.304 29.9889 10.408C30.0849 10.696 30.1329 11.016 30.1329 11.368V17.392H31.4769C31.6689 17.392 31.7649 17.488 31.7649 17.68V18.712C31.7649 18.904 31.6689 19 31.4769 19H26.8929C26.6849 19 26.5809 18.904 26.5809 18.712V17.68C26.5809 17.488 26.6849 17.392 26.8929 17.392H28.1649V11.68C28.1649 10.752 27.9409 10.032 27.4929 9.52C27.0449 9.008 26.3889 8.752 25.5249 8.752C24.8689 8.752 24.3649 8.856 24.0129 9.064C23.6769 9.256 23.4209 9.432 23.2449 9.592C23.0689 9.736 22.9249 9.88 22.8129 10.024C22.6209 10.28 22.4609 10.544 22.3329 10.816V17.392H23.5089C23.7009 17.392 23.7969 17.488 23.7969 17.68V18.712C23.7969 18.904 23.7009 19 23.5089 19H19.0209C18.8129 19 18.7089 18.904 18.7089 18.712V17.68C18.7089 17.488 18.8129 17.392 19.0209 17.392H20.3409V8.8H19.0209C18.8129 8.8 18.7089 8.704 18.7089 8.512V7.48C18.7089 7.288 18.8129 7.192 19.0209 7.192H21.3729C21.6449 7.192 21.8369 7.248 21.9489 7.36C22.0769 7.456 22.1409 7.64 22.1409 7.912L22.0929 9.112H22.1649C22.9969 7.72 24.2849 7.024 26.0289 7.024C27.7889 7.024 28.9889 7.688 29.6289 9.016C30.5409 7.688 31.8289 7.024 33.4929 7.024C34.7729 7.024 35.7649 7.4 36.4689 8.152C37.1889 8.904 37.5489 9.92 37.5489 11.2L37.5729 17.392H38.9169C39.1249 17.392 39.2289 17.488 39.2289 17.68V18.712C39.2289 18.904 39.1249 19 38.9169 19ZM45.4777 24.4H40.6537C40.4457 24.4 40.3417 24.304 40.3417 24.112V23.08C40.3417 22.888 40.4457 22.792 40.6537 22.792H41.9977V8.8H40.7017C40.4937 8.8 40.3897 8.704 40.3897 8.512V7.48C40.3897 7.288 40.4937 7.192 40.7017 7.192H43.5097C43.7177 7.192 43.8217 7.288 43.8217 7.48L43.7977 9.376H43.8217C44.1257 8.72 44.6137 8.168 45.2857 7.72C45.9737 7.256 46.8137 7.024 47.8057 7.024C49.4217 7.024 50.7257 7.576 51.7177 8.68C52.7097 9.768 53.2057 11.224 53.2057 13.048C53.2057 14.856 52.7177 16.328 51.7417 17.464C50.7657 18.6 49.4617 19.168 47.8297 19.168C46.8377 19.168 46.0057 18.944 45.3337 18.496C44.6777 18.032 44.2057 17.472 43.9177 16.816H43.8457C43.8937 17.328 43.9177 17.696 43.9177 17.92V22.792H45.4777C45.6857 22.792 45.7897 22.888 45.7897 23.08V24.112C45.7897 24.304 45.6857 24.4 45.4777 24.4ZM43.8697 13.144C43.8697 14.536 44.2297 15.608 44.9497 16.36C45.6857 17.112 46.5657 17.488 47.5897 17.488C48.6297 17.488 49.4937 17.088 50.1817 16.288C50.8857 15.472 51.2377 14.408 51.2377 13.096C51.2377 11.768 50.8857 10.704 50.1817 9.904C49.4937 9.104 48.6297 8.704 47.5897 8.704C46.5497 8.704 45.6697 9.096 44.9497 9.88C44.2297 10.664 43.8697 11.752 43.8697 13.144ZM59.6049 19H55.0209C54.8129 19 54.7089 18.904 54.7089 18.712V17.68C54.7089 17.488 54.8129 17.392 55.0209 17.392H56.3409V3.376H55.0209C54.8129 3.376 54.7089 3.28 54.7089 3.088V2.056C54.7089 1.864 54.8129 1.768 55.0209 1.768H57.6849C58.1169 1.768 58.3329 1.968 58.3329 2.368V17.392H59.6049C59.8129 17.392 59.9169 17.488 59.9169 17.68V18.712C59.9169 18.904 59.8129 19 59.6049 19ZM72.2795 13.336H63.6395C63.7035 14.664 64.1195 15.688 64.8875 16.408C65.6715 17.128 66.5515 17.488 67.5275 17.488C68.5035 17.488 69.3355 17.28 70.0235 16.864C70.7275 16.448 71.1995 16.04 71.4395 15.64C71.5675 15.48 71.7115 15.456 71.8715 15.568L72.5195 16.216C72.6155 16.312 72.6635 16.4 72.6635 16.48C72.6635 16.544 72.6235 16.632 72.5435 16.744C72.4795 16.856 72.3355 17.032 72.1115 17.272C71.8875 17.512 71.5675 17.784 71.1515 18.088C70.7515 18.392 70.2235 18.648 69.5675 18.856C68.9275 19.064 68.2395 19.168 67.5035 19.168C65.8235 19.168 64.4155 18.616 63.2795 17.512C62.1595 16.408 61.5995 14.928 61.5995 13.072C61.5995 11.2 62.1595 9.728 63.2795 8.656C64.3995 7.568 65.7675 7.024 67.3835 7.024C69.0155 7.024 70.2955 7.552 71.2235 8.608C72.1515 9.648 72.6155 11.056 72.6155 12.832C72.6155 12.896 72.6155 12.96 72.6155 13.024C72.6155 13.232 72.5035 13.336 72.2795 13.336ZM70.6235 11.872C70.5755 10.88 70.2635 10.088 69.6875 9.496C69.1115 8.904 68.3435 8.608 67.3835 8.608C66.4235 8.608 65.5995 8.88 64.9115 9.424C64.2235 9.968 63.8155 10.784 63.6875 11.872H70.6235ZM203.799 19H202.575C202.383 19 202.287 18.904 202.287 18.712V3.376H200.943C200.735 3.376 200.631 3.28 200.631 3.088V2.056C200.631 1.864 200.735 1.768 200.943 1.768H203.895C204.103 1.768 204.207 1.864 204.207 2.056V8.44L204.135 9.376H204.207C204.479 8.72 204.951 8.168 205.623 7.72C206.295 7.256 207.127 7.024 208.119 7.024C209.735 7.024 211.031 7.584 212.007 8.704C212.999 9.808 213.495 11.272 213.495 13.096C213.495 14.904 212.991 16.368 211.983 17.488C210.991 18.608 209.695 19.168 208.095 19.168C207.087 19.168 206.247 18.936 205.575 18.472C204.903 17.992 204.423 17.416 204.135 16.744H204.111V18.712C204.111 18.904 204.007 19 203.799 19ZM204.159 13.072C204.159 14.4 204.503 15.472 205.191 16.288C205.895 17.088 206.783 17.488 207.855 17.488C208.927 17.488 209.807 17.08 210.495 16.264C211.183 15.448 211.527 14.384 211.527 13.072C211.527 11.744 211.175 10.688 210.471 9.904C209.767 9.104 208.887 8.704 207.831 8.704C206.791 8.704 205.919 9.096 205.215 9.88C204.511 10.664 204.159 11.728 204.159 13.072ZM219.894 19H215.31C215.102 19 214.998 18.904 214.998 18.712V17.68C214.998 17.488 215.102 17.392 215.31 17.392H216.63V3.376H215.31C215.102 3.376 214.998 3.28 214.998 3.088V2.056C214.998 1.864 215.102 1.768 215.31 1.768H217.974C218.406 1.768 218.622 1.968 218.622 2.368V17.392H219.894C220.102 17.392 220.206 17.488 220.206 17.68V18.712C220.206 18.904 220.102 19 219.894 19ZM232.161 17.488C231.041 18.608 229.609 19.168 227.865 19.168C226.121 19.168 224.689 18.616 223.569 17.512C222.449 16.392 221.889 14.912 221.889 13.072C221.889 11.216 222.457 9.744 223.593 8.656C224.729 7.568 226.153 7.024 227.865 7.024C229.593 7.024 231.017 7.576 232.137 8.68C233.273 9.768 233.841 11.232 233.841 13.072C233.841 14.896 233.281 16.368 232.161 17.488ZM223.905 13.072C223.905 14.384 224.289 15.448 225.057 16.264C225.825 17.08 226.761 17.488 227.865 17.488C228.985 17.488 229.929 17.08 230.697 16.264C231.465 15.448 231.849 14.384 231.849 13.072C231.849 11.76 231.457 10.704 230.673 9.904C229.905 9.104 228.977 8.704 227.889 8.704C226.801 8.704 225.865 9.104 225.081 9.904C224.297 10.704 223.905 11.76 223.905 13.072ZM241.166 24.616C240.366 24.616 239.758 24.56 239.342 24.448C238.942 24.336 238.614 24.232 238.358 24.136C238.118 24.056 237.91 23.968 237.734 23.872C237.558 23.792 237.39 23.704 237.23 23.608C236.526 23.144 236.262 22.808 236.438 22.6L237.062 21.712C237.158 21.568 237.294 21.56 237.47 21.688C237.486 21.688 237.534 21.72 237.614 21.784C237.71 21.864 237.798 21.936 237.878 22C237.974 22.064 238.094 22.136 238.238 22.216C238.398 22.312 238.574 22.392 238.766 22.456C238.958 22.536 239.166 22.608 239.39 22.672C239.918 22.816 240.502 22.888 241.142 22.888C242.294 22.888 243.214 22.608 243.902 22.048C244.606 21.504 244.958 20.64 244.958 19.456V16.72C244.67 17.392 244.19 17.968 243.518 18.448C242.862 18.928 242.038 19.168 241.046 19.168C239.414 19.168 238.102 18.6 237.11 17.464C236.134 16.328 235.646 14.856 235.646 13.048C235.646 11.24 236.142 9.784 237.134 8.68C238.142 7.576 239.446 7.024 241.046 7.024C242.038 7.024 242.87 7.256 243.542 7.72C244.23 8.168 244.726 8.72 245.03 9.376H245.078L245.054 7.48C245.054 7.288 245.15 7.192 245.342 7.192H248.174C248.366 7.192 248.462 7.288 248.462 7.48V8.512C248.462 8.704 248.366 8.8 248.174 8.8H246.878V19.456C246.878 21.168 246.35 22.456 245.294 23.32C244.254 24.184 242.878 24.616 241.166 24.616ZM237.614 13.096C237.614 14.408 237.966 15.472 238.67 16.288C239.374 17.088 240.254 17.488 241.31 17.488C242.366 17.488 243.238 17.088 243.926 16.288C244.63 15.488 244.982 14.416 244.982 13.072C244.982 11.728 244.63 10.664 243.926 9.88C243.238 9.096 242.366 8.704 241.31 8.704C240.254 8.704 239.374 9.104 238.67 9.904C237.966 10.704 237.614 11.768 237.614 13.096Z" fill="black"/>
<path d="M88.373 19.168V20.416C88.373 20.624 88.269 20.728 88.061 20.728C85.373 20.728 84.029 19.48 84.029 16.984V14.104C84.029 13.304 83.829 12.648 83.429 12.136C83.045 11.608 82.717 11.344 82.445 11.344C82.173 11.344 82.037 11.232 82.037 11.008V10.264C82.037 10.056 82.173 9.952 82.445 9.952C82.717 9.936 83.045 9.672 83.429 9.16C83.829 8.648 84.029 7.984 84.029 7.168V4.432C84.029 1.904 85.373 0.639999 88.061 0.639999C88.269 0.639999 88.373 0.743999 88.373 0.951999V2.2C88.373 2.408 88.269 2.512 88.061 2.512C87.357 2.512 86.845 2.68 86.525 3.016C86.205 3.336 86.045 3.864 86.045 4.6V7.144C86.045 7.784 85.909 8.36 85.637 8.872C85.381 9.384 85.125 9.736 84.869 9.928L84.485 10.24V11.056C85.157 11.504 85.621 12.152 85.877 13C85.989 13.352 86.045 13.728 86.045 14.128V16.816C86.045 17.552 86.197 18.08 86.501 18.4C86.821 18.704 87.341 18.856 88.061 18.856C88.269 18.856 88.373 18.96 88.373 19.168ZM103.129 19H101.713C101.377 19 101.185 18.832 101.137 18.496L99.0967 10.456H99.0487L97.0087 18.496C96.9447 18.832 96.7447 19 96.4087 19H95.0167C94.7287 19 94.5367 18.832 94.4407 18.496L91.2727 8.8H89.9287C89.7367 8.8 89.6407 8.704 89.6407 8.512V7.48C89.6407 7.288 89.7367 7.192 89.9287 7.192H94.4167C94.6087 7.192 94.7047 7.288 94.7047 7.48V8.512C94.7047 8.704 94.6087 8.8 94.4167 8.8H93.3127L95.7367 16.888H95.7847L97.8967 8.8H96.9607C96.7687 8.8 96.6727 8.704 96.6727 8.512V7.48C96.6727 7.288 96.7687 7.192 96.9607 7.192H101.185C101.377 7.192 101.473 7.288 101.473 7.48V8.512C101.473 8.704 101.377 8.8 101.185 8.8H100.249L102.361 16.888H102.409L104.809 8.8H103.729C103.521 8.8 103.417 8.704 103.417 8.512V7.48C103.417 7.288 103.521 7.192 103.729 7.192H108.193C108.385 7.192 108.481 7.288 108.481 7.48V8.512C108.481 8.704 108.385 8.8 108.193 8.8H106.873L103.705 18.496C103.577 18.832 103.385 19 103.129 19ZM119.834 13.336H111.194C111.258 14.664 111.674 15.688 112.442 16.408C113.226 17.128 114.106 17.488 115.082 17.488C116.058 17.488 116.89 17.28 117.578 16.864C118.282 16.448 118.754 16.04 118.994 15.64C119.122 15.48 119.266 15.456 119.426 15.568L120.074 16.216C120.17 16.312 120.218 16.4 120.218 16.48C120.218 16.544 120.178 16.632 120.098 16.744C120.034 16.856 119.89 17.032 119.666 17.272C119.442 17.512 119.122 17.784 118.706 18.088C118.306 18.392 117.778 18.648 117.122 18.856C116.482 19.064 115.794 19.168 115.058 19.168C113.378 19.168 111.97 18.616 110.834 17.512C109.714 16.408 109.154 14.928 109.154 13.072C109.154 11.2 109.714 9.728 110.834 8.656C111.954 7.568 113.322 7.024 114.938 7.024C116.57 7.024 117.85 7.552 118.778 8.608C119.706 9.648 120.17 11.056 120.17 12.832C120.17 12.896 120.17 12.96 120.17 13.024C120.17 13.232 120.058 13.336 119.834 13.336ZM118.178 11.872C118.13 10.88 117.818 10.088 117.242 9.496C116.666 8.904 115.898 8.608 114.938 8.608C113.978 8.608 113.154 8.88 112.466 9.424C111.778 9.968 111.37 10.784 111.242 11.872H118.178ZM124.838 19H123.614C123.422 19 123.326 18.904 123.326 18.712V3.376H121.982C121.774 3.376 121.67 3.28 121.67 3.088V2.056C121.67 1.864 121.774 1.768 121.982 1.768H124.934C125.142 1.768 125.246 1.864 125.246 2.056V8.44L125.174 9.376H125.246C125.518 8.72 125.99 8.168 126.662 7.72C127.334 7.256 128.166 7.024 129.158 7.024C130.774 7.024 132.07 7.584 133.046 8.704C134.038 9.808 134.534 11.272 134.534 13.096C134.534 14.904 134.03 16.368 133.022 17.488C132.03 18.608 130.734 19.168 129.134 19.168C128.126 19.168 127.286 18.936 126.614 18.472C125.942 17.992 125.462 17.416 125.174 16.744H125.15V18.712C125.15 18.904 125.046 19 124.838 19ZM125.198 13.072C125.198 14.4 125.542 15.472 126.23 16.288C126.934 17.088 127.822 17.488 128.894 17.488C129.966 17.488 130.846 17.08 131.534 16.264C132.222 15.448 132.566 14.384 132.566 13.072C132.566 11.744 132.214 10.688 131.51 9.904C130.806 9.104 129.926 8.704 128.87 8.704C127.83 8.704 126.958 9.096 126.254 9.88C125.55 10.664 125.198 11.728 125.198 13.072ZM156.488 19H154.4C154.032 19 153.76 18.928 153.584 18.784C153.424 18.624 153.344 18.36 153.344 17.992V16.648H153.32C153.064 17.32 152.584 17.912 151.88 18.424C151.176 18.92 150.32 19.168 149.312 19.168C147.712 19.168 146.408 18.608 145.4 17.488C144.408 16.368 143.912 14.904 143.912 13.096C143.912 11.272 144.408 9.808 145.4 8.704C146.408 7.584 147.72 7.024 149.336 7.024C150.328 7.024 151.152 7.256 151.808 7.72C152.464 8.168 152.936 8.72 153.224 9.376H153.248C153.232 9.056 153.224 8.792 153.224 8.584V3.376H151.88C151.672 3.376 151.568 3.28 151.568 3.088V2.056C151.568 1.864 151.672 1.768 151.88 1.768H154.856C155.048 1.768 155.144 1.864 155.144 2.056V17.392H156.488C156.68 17.392 156.776 17.488 156.776 17.68V18.712C156.776 18.904 156.68 19 156.488 19ZM145.88 13.048C145.88 14.376 146.224 15.448 146.912 16.264C147.616 17.08 148.504 17.488 149.576 17.488C150.648 17.488 151.528 17.088 152.216 16.288C152.904 15.472 153.248 14.392 153.248 13.048C153.248 11.704 152.896 10.648 152.192 9.88C151.488 9.096 150.616 8.704 149.576 8.704C148.536 8.704 147.656 9.096 146.936 9.88C146.232 10.664 145.88 11.72 145.88 13.048ZM168.889 13.336H160.249C160.313 14.664 160.729 15.688 161.497 16.408C162.281 17.128 163.161 17.488 164.137 17.488C165.113 17.488 165.945 17.28 166.633 16.864C167.337 16.448 167.809 16.04 168.049 15.64C168.177 15.48 168.321 15.456 168.481 15.568L169.129 16.216C169.225 16.312 169.273 16.4 169.273 16.48C169.273 16.544 169.233 16.632 169.153 16.744C169.089 16.856 168.945 17.032 168.721 17.272C168.497 17.512 168.177 17.784 167.761 18.088C167.361 18.392 166.833 18.648 166.177 18.856C165.537 19.064 164.849 19.168 164.113 19.168C162.433 19.168 161.025 18.616 159.889 17.512C158.769 16.408 158.209 14.928 158.209 13.072C158.209 11.2 158.769 9.728 159.889 8.656C161.009 7.568 162.377 7.024 163.993 7.024C165.625 7.024 166.905 7.552 167.833 8.608C168.761 9.648 169.225 11.056 169.225 12.832C169.225 12.896 169.225 12.96 169.225 13.024C169.225 13.232 169.113 13.336 168.889 13.336ZM167.233 11.872C167.185 10.88 166.873 10.088 166.297 9.496C165.721 8.904 164.953 8.608 163.993 8.608C163.033 8.608 162.209 8.88 161.521 9.424C160.833 9.968 160.425 10.784 160.297 11.872H167.233ZM177.73 19H176.122C175.962 19 175.85 18.976 175.786 18.928C175.722 18.864 175.658 18.744 175.594 18.568L171.778 8.8H170.434C170.242 8.8 170.146 8.704 170.146 8.512V7.48C170.146 7.288 170.242 7.192 170.434 7.192H174.898C175.09 7.192 175.186 7.288 175.186 7.48V8.512C175.186 8.704 175.09 8.8 174.898 8.8H173.842L176.914 16.888H176.962L180.082 8.8H179.002C178.81 8.8 178.714 8.704 178.714 8.512V7.48C178.714 7.288 178.81 7.192 179.002 7.192H183.466C183.674 7.192 183.778 7.288 183.778 7.48V8.512C183.778 8.704 183.674 8.8 183.466 8.8H182.146L178.282 18.568C178.186 18.856 178.002 19 177.73 19ZM187.28 14.128C187.28 12.8 187.8 11.776 188.84 11.056V10.24C188.728 10.176 188.584 10.072 188.408 9.928C188.232 9.768 188 9.424 187.712 8.896C187.424 8.368 187.28 7.784 187.28 7.144V4.6C187.28 3.864 187.12 3.336 186.8 3.016C186.48 2.68 185.968 2.512 185.264 2.512C185.04 2.512 184.928 2.408 184.928 2.2V0.951999C184.928 0.743999 185.04 0.639999 185.264 0.639999C187.952 0.639999 189.296 1.904 189.296 4.432V7.168C189.296 7.984 189.488 8.648 189.872 9.16C190.256 9.672 190.584 9.936 190.856 9.952C191.128 9.952 191.264 10.056 191.264 10.264V11.008C191.264 11.232 191.128 11.344 190.856 11.344C190.6 11.344 190.272 11.608 189.872 12.136C189.488 12.648 189.296 13.304 189.296 14.104V16.984C189.296 19.48 187.952 20.728 185.264 20.728C185.04 20.728 184.928 20.624 184.928 20.416V19.168C184.928 18.96 185.04 18.856 185.264 18.856C185.968 18.856 186.48 18.704 186.8 18.4C187.12 18.08 187.28 17.552 187.28 16.816V14.128Z" fill="#8798FD"/>
</svg>
