<svg width="380" height="181" viewBox="0 0 380 181" fill="none" xmlns="http://www.w3.org/2000/svg">
<g clip-path="url(#clip0)">
<rect width="380" height="181" fill="white"/>
<path d="M46.232 118.528C40.856 118.528 35.864 117.568 31.256 115.648C26.648 113.728 22.952 110.8 20.168 106.864C17.48 103.024 16.136 98.32 16.136 92.752C16.136 85.936 18.008 81.04 21.752 78.064C25.496 74.992 29.768 73.456 34.568 73.456C31.976 76.24 30.008 79.312 28.664 82.672C27.32 86.032 26.648 89.392 26.648 92.752C26.648 98.512 28.52 103.312 32.264 107.152C36.104 110.992 41.576 112.912 48.68 112.912C53.192 112.912 57.464 112.096 61.496 110.464C65.624 108.832 68.984 106.432 71.576 103.264C74.168 100.096 75.464 96.304 75.464 91.888C75.464 88.048 74.504 84.688 72.584 81.808C70.664 78.832 68.264 76.336 65.384 74.32C62.504 72.208 58.664 69.712 53.864 66.832C48.968 63.952 45.032 61.456 42.056 59.344C39.176 57.136 36.728 54.496 34.712 51.424C32.696 48.352 31.688 44.8 31.688 40.768C31.688 35.2 33.416 29.44 36.872 23.488C40.328 17.44 45.176 12.4 51.416 8.368C57.752 4.336 64.856 2.32 72.728 2.32C78.008 2.32 81.848 3.616 84.248 6.208C86.648 8.8 87.848 12.304 87.848 16.72C87.848 21.52 86.696 26.896 84.392 32.848C82.088 38.8 79.544 43.984 76.76 48.4C73.592 47.728 72.008 45.664 72.008 42.208C72.008 40.384 72.344 38.32 73.016 36.016C73.784 33.712 74.84 30.832 76.184 27.376C77.624 23.632 78.68 20.608 79.352 18.304C80.12 15.904 80.504 13.792 80.504 11.968C80.504 9.95199 79.88 8.41599 78.632 7.35999C77.48 6.30399 75.416 5.77599 72.44 5.77599C66.776 5.77599 61.496 7.55199 56.6 11.104C51.8 14.56 47.96 18.784 45.08 23.776C42.2 28.768 40.76 33.328 40.76 37.456C40.76 40.528 41.576 43.264 43.208 45.664C44.936 48.064 47.048 50.176 49.544 52C52.04 53.728 55.448 55.792 59.768 58.192C64.952 61.168 69.128 63.856 72.296 66.256C75.464 68.56 78.152 71.536 80.36 75.184C82.664 78.736 83.816 82.96 83.816 87.856C83.816 94.192 81.944 99.664 78.2 104.272C74.552 108.88 69.848 112.384 64.088 114.784C58.328 117.28 52.376 118.528 46.232 118.528ZM121.851 43.792C120.123 43.792 118.683 43.408 117.531 42.64C116.475 41.776 115.947 40.576 115.947 39.04C115.947 37.12 117.099 35.392 119.403 33.856C121.707 32.32 124.059 31.552 126.459 31.552C129.627 31.552 131.211 33.04 131.211 36.016C131.211 37.84 130.203 39.616 128.187 41.344C126.267 42.976 124.155 43.792 121.851 43.792ZM104.571 109.744C101.019 109.744 98.2831 108.592 96.3631 106.288C94.4431 104.08 93.4831 101.2 93.4831 97.648C93.4831 93.904 94.5391 88.72 96.6511 82.096C98.8591 75.472 101.547 69.664 104.715 64.672C107.979 59.68 111.147 57.184 114.219 57.184C115.083 57.184 115.803 57.472 116.379 58.048C117.051 58.624 117.387 59.392 117.387 60.352C117.387 61.696 115.851 64.912 112.779 70C109.611 75.28 107.067 80.032 105.147 84.256C103.323 88.384 102.411 92.32 102.411 96.064C102.411 99.424 102.939 101.728 103.995 102.976C105.147 104.128 106.971 104.704 109.467 104.704C116.955 104.704 124.347 97.36 131.643 82.672L132.939 84.112C130.251 92.176 126.267 98.464 120.987 102.976C115.803 107.488 110.331 109.744 104.571 109.744ZM201.514 110.464C198.346 110.464 195.946 109.456 194.314 107.44C192.682 105.52 191.866 103.024 191.866 99.952C191.866 97.36 192.634 93.568 194.17 88.576C194.65 86.944 195.082 85.312 195.466 83.68C195.946 82.048 196.186 80.656 196.186 79.504C196.186 77.776 195.754 76.48 194.89 75.616C194.122 74.752 193.162 74.32 192.01 74.32C189.802 74.32 187.402 75.904 184.81 79.072C182.314 82.144 178.426 87.712 173.146 95.776C171.802 97.888 169.93 101.44 167.53 106.432L166.234 109.168C164.698 109.168 163.066 108.88 161.338 108.304C159.706 107.824 158.89 107.152 158.89 106.288C158.89 105.616 159.706 103.072 161.338 98.656C163.354 92.704 164.938 87.712 166.09 83.68C167.338 79.552 167.962 76.048 167.962 73.168C167.962 69.52 166.762 67.696 164.362 67.696C161.674 67.696 158.17 69.856 153.85 74.176C149.626 78.496 145.45 83.968 141.322 90.592C137.194 97.12 133.978 103.552 131.674 109.888C130.234 109.888 128.601 109.552 126.777 108.88C124.857 108.208 123.897 107.536 123.897 106.864C123.897 106.576 124.569 104.32 125.913 100.096C128.121 93.664 129.946 87.76 131.386 82.384C132.922 77.008 133.738 72.352 133.834 68.416C134.506 67.648 135.466 66.976 136.714 66.4C137.962 65.728 139.21 65.392 140.458 65.392C143.05 65.392 144.346 66.64 144.346 69.136C144.346 71.728 143.098 77.2 140.602 85.552C145.306 78.064 150.346 71.632 155.722 66.256C161.194 60.88 166.282 58.192 170.986 58.192C173.77 58.192 175.738 59.2 176.89 61.216C178.138 63.232 178.762 65.872 178.762 69.136C178.762 72.4 178.282 75.952 177.322 79.792C176.362 83.632 175.354 86.848 174.298 89.44C177.946 82.816 181.738 77.488 185.674 73.456C189.61 69.328 193.786 67.264 198.202 67.264C201.082 67.264 203.146 68.128 204.394 69.856C205.738 71.584 206.41 73.792 206.41 76.48C206.41 78.304 206.17 80.272 205.69 82.384C205.21 84.4 204.49 86.896 203.53 89.872C201.898 94.96 201.082 98.512 201.082 100.528C201.082 103.792 202.522 105.424 205.402 105.424C208.954 105.424 212.314 103.264 215.482 98.944C218.65 94.528 221.722 89.104 224.698 82.672L226.426 84.688C223.738 91.792 220.234 97.888 215.914 102.976C211.594 107.968 206.794 110.464 201.514 110.464ZM212.959 146.32C212.191 146.32 211.471 145.936 210.799 145.168C210.127 144.4 209.551 143.536 209.071 142.576C208.591 141.616 208.399 141.04 208.495 140.848C209.839 136.24 211.471 131.152 213.391 125.584C215.503 119.44 217.279 113.824 218.719 108.736C220.159 103.648 221.647 96.784 223.183 88.144C224.815 79.408 226.447 68.272 228.079 54.736C228.175 53.776 228.367 53.152 228.655 52.864C229.039 52.48 229.759 52.288 230.815 52.288C233.119 52.288 234.847 52.96 235.999 54.304C237.151 55.552 237.727 57.088 237.727 58.912C237.727 61.6 236.623 68.08 234.415 78.352C237.391 72.592 240.991 67.648 245.215 63.52C249.535 59.296 254.239 57.184 259.327 57.184C263.551 57.184 267.007 58.72 269.695 61.792C272.479 64.768 273.871 68.704 273.871 73.6C273.871 78.688 272.383 84.112 269.407 89.872C266.431 95.536 262.303 100.288 257.023 104.128C251.839 107.872 246.127 109.744 239.887 109.744C237.487 109.744 235.471 109.456 233.839 108.88C232.303 108.4 231.535 107.824 231.535 107.152C231.535 106.864 231.871 106.672 232.543 106.576C233.311 106.48 234.175 106.432 235.135 106.432C240.127 106.432 244.879 104.848 249.391 101.68C253.903 98.512 257.551 94.48 260.335 89.584C263.119 84.688 264.511 79.792 264.511 74.896C264.511 71.632 263.791 68.992 262.351 66.976C261.007 64.864 258.991 63.808 256.303 63.808C253.231 63.808 250.063 65.104 246.799 67.696C243.631 70.192 240.751 73.264 238.159 76.912C235.663 80.464 233.743 83.824 232.399 86.992C228.847 102.16 225.391 115.312 222.031 126.448C218.767 137.68 216.319 144.064 214.687 145.6C214.207 146.08 213.631 146.32 212.959 146.32ZM290.233 110.32C286.297 110.32 283.369 108.976 281.449 106.288C279.625 103.6 278.713 100 278.713 95.488C278.713 86.848 281.689 75.136 287.641 60.352C293.593 45.472 300.217 32.08 307.513 20.176C314.905 8.272 320.233 2.32 323.497 2.32C324.841 2.32 325.945 3.51999 326.809 5.91999C327.769 8.224 328.249 10.576 328.249 12.976C328.249 17.392 326.425 23.92 322.777 32.56C319.225 41.104 314.521 49.792 308.665 58.624C302.809 67.456 296.569 74.608 289.945 80.08C288.697 85.648 288.073 90.496 288.073 94.624C288.073 102.016 290.185 105.712 294.409 105.712C297.961 105.712 301.561 103.456 305.209 98.944C308.953 94.432 312.265 89.008 315.145 82.672L317.305 83.824C309.049 101.488 300.025 110.32 290.233 110.32ZM291.241 75.184C296.521 69.904 301.657 63.28 306.649 55.312C311.737 47.248 315.865 39.568 319.033 32.272C322.201 24.88 323.785 19.552 323.785 16.288C323.785 14.752 323.449 13.984 322.777 13.984C321.433 13.984 318.649 17.296 314.425 23.92C310.297 30.448 306.025 38.464 301.609 47.968C297.193 57.472 293.737 66.544 291.241 75.184ZM327.865 112.336C322.201 112.336 317.833 110.752 314.761 107.584C311.785 104.512 310.296 100.528 310.296 95.632C310.296 89.968 312.168 83.872 315.913 77.344C319.657 70.816 324.361 65.344 330.025 60.928C335.785 56.416 341.401 54.16 346.873 54.16C352.825 54.16 355.801 57.088 355.801 62.944C355.801 67.648 354.025 72.064 350.473 76.192C346.921 80.224 342.361 83.536 336.793 86.128C331.225 88.72 325.657 90.304 320.089 90.88C319.705 92.512 319.513 94.24 319.513 96.064C319.513 99.52 320.377 102.4 322.105 104.704C323.833 107.008 326.761 108.16 330.889 108.16C336.745 108.16 342.649 105.712 348.601 100.816C354.553 95.92 359.401 89.872 363.145 82.672L364.873 83.968C361.033 92.512 355.705 99.376 348.889 104.56C342.073 109.744 335.065 112.336 327.865 112.336ZM320.809 88.144C324.841 86.704 329.065 84.688 333.48 82.096C337.897 79.504 341.641 76.48 344.713 73.024C347.881 69.472 349.465 65.776 349.465 61.936C349.465 60.784 349.225 59.968 348.745 59.488C348.361 58.912 347.593 58.624 346.441 58.624C343.465 58.624 340.201 60.112 336.649 63.088C333.193 66.064 329.977 69.856 327.001 74.464C324.121 79.072 322.057 83.632 320.809 88.144Z" fill="#37597E"/>
<path d="M72.0017 176.392H66.8573C65.6367 176.392 64.9391 175.783 64.7648 174.567L57.3535 145.457H57.1791L49.7678 174.567C49.5353 175.783 48.8087 176.392 47.588 176.392H42.5309C41.4846 176.392 40.7871 175.783 40.4383 174.567L28.929 139.461H24.0463C23.3488 139.461 23 139.113 23 138.418V134.681C23 133.986 23.3488 133.639 24.0463 133.639H40.3511C41.0487 133.639 41.3974 133.986 41.3974 134.681V138.418C41.3974 139.113 41.0487 139.461 40.3511 139.461H36.3403L45.1467 168.745H45.321L52.9939 139.461H49.5934C48.8959 139.461 48.5471 139.113 48.5471 138.418V134.681C48.5471 133.986 48.8959 133.639 49.5934 133.639H64.9391C65.6367 133.639 65.9854 133.986 65.9854 134.681V138.418C65.9854 139.113 65.6367 139.461 64.9391 139.461H61.5387L69.2115 168.745H69.3859L78.1051 139.461H74.1814C73.4258 139.461 73.0479 139.113 73.0479 138.418V134.681C73.0479 133.986 73.4258 133.639 74.1814 133.639H90.3991C91.0966 133.639 91.4454 133.986 91.4454 134.681V138.418C91.4454 139.113 91.0966 139.461 90.3991 139.461H85.6035L74.0942 174.567C73.6292 175.783 72.9317 176.392 72.0017 176.392Z" fill="#8798FD"/>
<path d="M132.692 155.884H101.303C101.536 160.692 103.047 164.4 105.837 167.007C108.686 169.614 111.883 170.917 115.428 170.917C118.974 170.917 121.997 170.164 124.496 168.658C127.054 167.152 128.769 165.674 129.641 164.226C130.106 163.647 130.629 163.56 131.21 163.966L133.564 166.312C133.913 166.659 134.087 166.978 134.087 167.268C134.087 167.499 133.942 167.818 133.652 168.223C133.419 168.629 132.896 169.266 132.082 170.135C131.268 171.004 130.106 171.989 128.594 173.09C127.141 174.19 125.223 175.117 122.84 175.87C120.515 176.623 118.015 177 115.341 177C109.238 177 104.123 175.001 99.9956 171.004C95.9266 167.007 93.8922 161.648 93.8922 154.928C93.8922 148.15 95.9266 142.821 99.9956 138.939C104.065 135 109.034 133.03 114.905 133.03C120.834 133.03 125.485 134.942 128.856 138.766C132.227 142.531 133.913 147.629 133.913 154.059C133.913 154.291 133.913 154.523 133.913 154.754C133.913 155.508 133.506 155.884 132.692 155.884ZM126.676 150.583C126.502 146.992 125.368 144.124 123.276 141.981C121.183 139.837 118.393 138.766 114.905 138.766C111.418 138.766 108.424 139.75 105.925 141.72C103.425 143.69 101.943 146.644 101.478 150.583H126.676Z" fill="#8798FD"/>
<path d="M150.87 176.392H146.424C145.726 176.392 145.377 176.044 145.377 175.349V119.822H140.495C139.739 119.822 139.361 119.474 139.361 118.779V115.043C139.361 114.348 139.739 114 140.495 114H151.219C151.975 114 152.353 114.348 152.353 115.043V138.157L152.091 141.546H152.353C153.341 139.171 155.056 137.172 157.497 135.55C159.938 133.87 162.961 133.03 166.565 133.03C172.436 133.03 177.144 135.058 180.69 139.113C184.294 143.11 186.096 148.411 186.096 155.015C186.096 161.561 184.265 166.862 180.603 170.917C176.999 174.972 172.291 177 166.478 177C162.816 177 159.764 176.16 157.323 174.48C154.881 172.742 153.137 170.657 152.091 168.223H152.004V175.349C152.004 176.044 151.626 176.392 150.87 176.392ZM152.178 154.928C152.178 159.737 153.428 163.618 155.928 166.572C158.485 169.469 161.711 170.917 165.606 170.917C169.5 170.917 172.697 169.44 175.197 166.486C177.696 163.531 178.946 159.679 178.946 154.928C178.946 150.12 177.667 146.297 175.11 143.458C172.552 140.561 169.355 139.113 165.519 139.113C161.74 139.113 158.572 140.532 156.015 143.371C153.457 146.21 152.178 150.062 152.178 154.928Z" fill="#8798FD"/>
<path d="M265.855 176.392H258.269C256.932 176.392 255.944 176.131 255.305 175.61C254.724 175.03 254.433 174.074 254.433 172.742V167.876H254.346C253.416 170.309 251.672 172.452 249.114 174.306C246.557 176.102 243.447 177 239.785 177C233.972 177 229.235 174.972 225.573 170.917C221.969 166.862 220.167 161.561 220.167 155.015C220.167 148.411 221.969 143.11 225.573 139.113C229.235 135.058 234.001 133.03 239.872 133.03C243.476 133.03 246.469 133.87 248.853 135.55C251.236 137.172 252.951 139.171 253.997 141.546H254.084C254.026 140.388 253.997 139.432 253.997 138.679V119.822H249.114C248.359 119.822 247.981 119.474 247.981 118.779V115.043C247.981 114.348 248.359 114 249.114 114H259.926C260.624 114 260.972 114.348 260.972 115.043V170.57H265.855C266.553 170.57 266.901 170.917 266.901 171.612V175.349C266.901 176.044 266.553 176.392 265.855 176.392ZM227.316 154.841C227.316 159.65 228.566 163.531 231.066 166.486C233.623 169.44 236.849 170.917 240.744 170.917C244.638 170.917 247.835 169.469 250.335 166.572C252.834 163.618 254.084 159.708 254.084 154.841C254.084 149.975 252.805 146.152 250.248 143.371C247.69 140.532 244.522 139.113 240.744 139.113C236.966 139.113 233.769 140.532 231.153 143.371C228.595 146.21 227.316 150.033 227.316 154.841Z" fill="#8798FD"/>
<path d="M310.907 155.884H279.518C279.751 160.692 281.262 164.4 284.052 167.007C286.9 169.614 290.097 170.917 293.643 170.917C297.189 170.917 300.212 170.164 302.711 168.658C305.269 167.152 306.984 165.674 307.855 164.226C308.32 163.647 308.844 163.56 309.425 163.966L311.779 166.312C312.128 166.659 312.302 166.978 312.302 167.268C312.302 167.499 312.157 167.818 311.866 168.223C311.634 168.629 311.111 169.266 310.297 170.135C309.483 171.004 308.32 171.989 306.809 173.09C305.356 174.19 303.438 175.117 301.055 175.87C298.729 176.623 296.23 177 293.556 177C287.453 177 282.337 175.001 278.21 171.004C274.141 167.007 272.107 161.648 272.107 154.928C272.107 148.15 274.141 142.821 278.21 138.939C282.279 135 287.249 133.03 293.12 133.03C299.049 133.03 303.699 134.942 307.071 138.766C310.442 142.531 312.128 147.629 312.128 154.059C312.128 154.291 312.128 154.523 312.128 154.754C312.128 155.508 311.721 155.884 310.907 155.884ZM304.891 150.583C304.717 146.992 303.583 144.124 301.49 141.981C299.398 139.837 296.608 138.766 293.12 138.766C289.632 138.766 286.639 139.75 284.139 141.72C281.64 143.69 280.158 146.644 279.693 150.583H304.891Z" fill="#8798FD"/>
<path d="M343.028 176.392H337.186C336.605 176.392 336.198 176.305 335.965 176.131C335.733 175.899 335.5 175.465 335.268 174.828L321.404 139.461H316.521C315.824 139.461 315.475 139.113 315.475 138.418V134.681C315.475 133.986 315.824 133.639 316.521 133.639H332.739C333.437 133.639 333.785 133.986 333.785 134.681V138.418C333.785 139.113 333.437 139.461 332.739 139.461H328.903L340.063 168.745H340.238L351.573 139.461H347.649C346.951 139.461 346.603 139.113 346.603 138.418V134.681C346.603 133.986 346.951 133.639 347.649 133.639H363.866C364.622 133.639 365 133.986 365 134.681V138.418C365 139.113 364.622 139.461 363.866 139.461H359.071L345.033 174.828C344.684 175.87 344.016 176.392 343.028 176.392Z" fill="#8798FD"/>
</g>
<defs>
<clipPath id="clip0">
<rect width="380" height="181" fill="white"/>
</clipPath>
</defs>
</svg>
