<svg width="378" height="311" viewBox="0 0 378 311" fill="none" xmlns="http://www.w3.org/2000/svg">
<path opacity="0.8" d="M294.289 310.574C271.205 310.574 251.634 302.042 235.576 284.978C219.518 266.911 211.489 242.822 211.489 212.71C211.489 169.55 218.012 134.419 231.06 107.318C244.107 79.2139 258.66 57.1318 274.718 41.0721C292.784 23.005 314.362 9.45465 339.453 0.421082L354.508 24.5106C337.446 32.5404 322.391 42.0759 309.344 53.1169C298.304 63.1542 287.765 75.199 277.729 89.2512C268.696 102.3 264.18 118.359 264.18 137.43C264.18 144.456 265.184 149.977 267.191 153.992C268.194 157.003 269.7 159.01 271.707 160.014C273.714 159.01 276.725 158.007 280.74 157.003C283.751 155.999 286.762 154.995 289.773 153.992C293.787 152.988 297.802 152.486 301.816 152.486C324.9 152.486 342.966 159.512 356.013 173.564C370.064 186.613 377.089 204.68 377.089 227.766C377.089 250.852 369.06 270.424 353.002 286.484C336.944 302.544 317.373 310.574 294.289 310.574ZM83.5248 310.574C60.4411 310.574 40.8701 302.042 24.8119 284.978C8.75363 266.911 0.724518 242.822 0.724518 212.71C0.724518 169.55 7.24817 134.419 20.2955 107.318C33.3428 79.2139 47.8956 57.1318 63.9538 41.0721C82.0193 23.005 103.598 9.45465 128.689 0.421082L143.743 24.5106C126.681 32.5404 111.627 42.0759 98.5794 53.1169C87.5393 63.1542 77.0011 75.199 66.9647 89.2512C57.932 102.3 53.4156 118.359 53.4156 137.43C53.4156 144.456 54.4192 149.977 56.4265 153.992C57.4302 157.003 58.9356 159.01 60.9429 160.014C62.9502 159.01 65.9611 158.007 69.9757 157.003C72.9866 155.999 75.9975 154.995 79.0084 153.992C83.023 152.988 87.0375 152.486 91.0521 152.486C114.136 152.486 132.201 159.512 145.249 173.564C159.3 186.613 166.325 204.68 166.325 227.766C166.325 250.852 158.296 270.424 142.238 286.484C126.179 302.544 106.608 310.574 83.5248 310.574Z" fill="#8798FD"/>
</svg>
