<svg width="25" height="25" viewBox="0 0 25 25" fill="none" xmlns="http://www.w3.org/2000/svg">
<g clip-path="url(#clip0)">
<path d="M25 5.02756C23.4274 5.10004 23.4617 5.09413 23.284 5.10901L24.2153 2.44921C24.2153 2.44921 21.3081 3.51866 20.5711 3.70997C18.6356 1.97027 15.7585 1.89341 13.7016 3.1576C12.0172 4.1931 11.1132 5.97132 11.4147 8.04976C8.13656 7.59485 5.37453 6.04094 3.19385 3.42138L2.50416 2.59302L1.98879 3.53945C1.33743 4.73536 1.12114 6.10274 1.37959 7.38962C1.48563 7.91758 1.66588 8.42112 1.91555 8.89261L1.32389 8.66335L1.2537 9.65193C1.18256 10.6561 1.51691 11.8284 2.14825 12.7874C2.32601 13.0575 2.55489 13.3541 2.845 13.6467L2.53925 13.5998L2.91233 14.7325C3.40271 16.2208 4.42123 17.3723 5.74303 18.0124C4.42295 18.5726 3.35655 18.93 1.6037 19.5066L0 20.0338L1.48125 20.8437C2.04601 21.1525 4.04167 22.1838 6.01349 22.4932C10.3966 23.1806 15.3315 22.6208 18.6537 19.6287C21.4519 17.1085 22.3701 13.5237 22.1794 9.79307C22.1506 9.22831 22.3053 8.68929 22.615 8.27559C23.2355 7.44723 24.9962 5.03309 25 5.02756V5.02756ZM21.4437 7.39821C20.9293 8.08504 20.6717 8.96223 20.7178 9.86784C20.9103 13.6309 19.8864 16.5491 17.6744 18.5411C15.0906 20.8683 10.9228 21.7817 6.24027 21.0472C5.39226 20.9143 4.51584 20.6165 3.79047 20.3192C5.26009 19.8135 6.39496 19.3628 8.22773 18.4954L10.7862 17.2844L7.96146 17.1036C6.60839 17.017 5.48172 16.3612 4.78916 15.2965C5.1569 15.2752 5.51147 15.2157 5.86452 15.1172L8.55865 14.3669L5.84202 13.7016C4.52194 13.3783 3.76949 12.5885 3.37067 11.9827C3.10879 11.5846 2.9377 11.1769 2.83508 10.8009C3.10745 10.874 3.42503 10.926 3.93715 10.9768L6.45161 11.2255L4.45938 9.67139C3.02391 8.55177 2.44865 6.86968 2.87037 5.25263C7.35035 9.89931 12.6104 9.55008 13.1399 9.67291C13.0234 8.5409 13.0203 8.53823 12.9898 8.43046C12.3117 6.0335 13.7978 4.81642 14.468 4.40443C15.868 3.54403 18.0902 3.41433 19.6295 4.83187C19.9619 5.13781 20.4115 5.25816 20.8322 5.15364C21.2099 5.0598 21.5198 4.96042 21.8233 4.85228L21.1916 6.65625L21.998 6.65682C21.8458 6.86091 21.6633 7.10524 21.4437 7.39821Z" fill="#8798FD"/>
</g>
<defs>
<clipPath id="clip0">
<rect width="25" height="25" fill="white"/>
</clipPath>
</defs>
</svg>
